<?xml version="1.0" encoding="iso-8859-1"?>
<!-- Generator: Adobe Illustrator 19.0.0, SVG Export Plug-In . SVG Version: 6.00 Build 0)  -->
<svg version="1.1" id="Capa_1" xmlns="http://www.w3.org/2000/svg" xmlns:xlink="http://www.w3.org/1999/xlink" x="0px" y="0px"
	 viewBox="0 0 512 512" style="enable-background:new 0 0 512 512;" xml:space="preserve">
<g>
	<g>
		<path d="M324.019,52.684v117.169c-21.709-11.331-45.778-17.243-70.74-17.243c-22.834,0-45.008,5.006-65.299,14.579V52.684H0
			v187.981h30.844c5.879,37.304,33.549,67.46,69.525,76.986c5.991,79.12,72.284,141.666,152.91,141.666
			c80.187,0,146.186-61.866,152.798-140.372c38.659-7.767,68.902-39.076,75.079-78.279H512V52.684H324.019z M29.681,210.983V82.365
			h128.618v128.618H29.681z M101.147,286.724c-19.92-7.717-35.132-24.929-40.064-46.06h53.413
			C107.643,255.203,103.151,270.715,101.147,286.724z M253.279,429.634c-68.193,0-123.672-55.479-123.672-123.672
			c0-23.252,6.426-45.727,18.624-65.299h39.749v-39.728c19.573-12.206,42.008-18.645,65.299-18.645
			c25.557,0,49.94,7.692,70.74,22.241v9.703l-91.728,91.728l97.275,97.275C308.538,419.766,282.039,429.634,253.279,429.634z
			 M350.554,382.25l-76.287-76.288l65.299-65.299h18.74c12.194,19.568,18.646,42.091,18.646,65.299
			C376.951,334.723,367.083,361.221,350.554,382.25z M405.631,288.496c-1.891-16.62-6.477-32.753-13.582-47.832h58.868
			C445.561,263.607,428.087,281.931,405.631,288.496z M482.319,210.983H353.701V82.365h128.618V210.983z"/>
	</g>
</g>
<g>
	<g>
		<polygon points="124.532,114.803 87.455,151.882 71.363,135.791 50.376,156.778 87.455,193.856 145.52,135.791 		"/>
	</g>
</g>
<g>
	<g>
		<polygon points="460.479,125.686 439.492,104.699 418.504,125.686 397.517,104.699 376.529,125.686 397.517,146.674 
			376.529,167.661 397.517,188.649 418.504,167.661 439.492,188.649 460.479,167.661 439.492,146.674 		"/>
	</g>
</g>
<g>
</g>
<g>
</g>
<g>
</g>
<g>
</g>
<g>
</g>
<g>
</g>
<g>
</g>
<g>
</g>
<g>
</g>
<g>
</g>
<g>
</g>
<g>
</g>
<g>
</g>
<g>
</g>
<g>
</g>
</svg>
